<?xml version="1.0" encoding="UTF-8" standalone="no"?><svg xmlns="http://www.w3.org/2000/svg" xmlns:xlink="http://www.w3.org/1999/xlink" contentScriptType="application/ecmascript" contentStyleType="text/css" height="312px" preserveAspectRatio="none" style="width:480px;height:312px;" version="1.1" viewBox="0 0 480 312" width="480px" zoomAndPan="magnify"><defs><filter height="300%" id="fzn3ez1ubxu1y" width="300%" x="-1" y="-1"><feGaussianBlur result="blurOut" stdDeviation="2.0"/><feColorMatrix in="blurOut" result="blurOut2" type="matrix" values="0 0 0 0 0 0 0 0 0 0 0 0 0 0 0 0 0 0 .4 0"/><feOffset dx="4.0" dy="4.0" in="blurOut2" result="blurOut3"/><feBlend in="SourceGraphic" in2="blurOut3" mode="normal"/></filter></defs><g><!--cluster 開発マシン--><polygon fill="#FFFFFF" filter="url(#fzn3ez1ubxu1y)" points="14,26,24,16,318,16,318,283,308,293,14,293,14,26" style="stroke: #000000; stroke-width: 1.5;"/><line style="stroke: #000000; stroke-width: 1.5;" x1="308" x2="317" y1="26" y2="17"/><line style="stroke: #000000; stroke-width: 1.5;" x1="14" x2="308" y1="26" y2="26"/><line style="stroke: #000000; stroke-width: 1.5;" x1="308" x2="308" y1="26" y2="293"/><text fill="#000000" font-family="sans-serif" font-size="14" font-weight="bold" lengthAdjust="spacingAndGlyphs" textLength="70" x="127" y="41.3184">開発マシン</text><!--cluster GitHub--><path d="M363,205 C363,202 365,200 368,200 C371,200 373,202 373,205 C373,202 375,200 378,200 C381,200 383,202 383,205 C383,202 385,200 388,200 C391,200 393,202 393,205 C393,202 395,200 398,200 C401,200 403,202 403,205 C403,202 405,200 408,200 C411,200 413,202 413,205 C413,202 415,200 418,200 C421,200 423,202 423,205 C423,202 425,200 428,200 C431,200 433,202 433,205 C433,202 435,200 438,200 C441,200 443,202 443,205 C443,202 445,200 448,200 C451,200 453,202 453,205 C453,202 455,200 458,200 C461,200 463,202 463,205 C466,205 468,207 468,210 C468,213 466,215 463,215 C466,215 468,217 468,220 C468,223 466,225 463,225 C466,225 468,227 468,230 C468,233 466,235 463,235 C466,235 468,237 468,240 C468,243 466,245 463,245 C466,245 468,247 468,250 C468,253 466,255 463,255 C466,255 468,257 468,260 C468,263 466,265 463,265 C466,265 468,267 468,270 C468,273 466,275 463,275 C466,275 468,277 468,280 C468,283 466,285 463,285 C466,285 468,287 468,290 C468,293 466,295 463,295 C463,298 460,300 458,300 C455,300 453,298 453,295 C453,298 450,300 448,300 C445,300 443,298 443,295 C443,298 440,300 438,300 C435,300 433,298 433,295 C433,298 430,300 428,300 C425,300 423,298 423,295 C423,298 420,300 418,300 C415,300 413,298 413,295 C413,298 410,300 408,300 C405,300 403,298 403,295 C403,298 400,300 398,300 C395,300 393,298 393,295 C393,298 390,300 388,300 C385,300 383,298 383,295 C383,298 380,300 378,300 C375,300 373,298 373,295 C373,298 370,300 368,300 C365,300 363,298 363,295 C360,295 358,293 358,290 C358,287 360,285 363,285 C360,285 358,283 358,280 C358,277 360,275 363,275 C360,275 358,273 358,270 C358,267 360,265 363,265 C360,265 358,263 358,260 C358,257 360,255 363,255 C360,255 358,253 358,250 C358,247 360,245 363,245 C360,245 358,243 358,240 C358,237 360,235 363,235 C360,235 358,233 358,230 C358,227 360,225 363,225 C360,225 358,223 358,220 C358,217 360,215 363,215 C360,215 358,213 358,210 C358,207 360,205 363,205 " fill="#FFFFFF" style="stroke: #000000; stroke-width: 1.5;"/><text fill="#000000" font-family="sans-serif" font-size="14" font-weight="bold" lengthAdjust="spacingAndGlyphs" textLength="54" x="384" y="223.3184">GitHub</text><!--cluster gh-page--><rect fill="#FFFFFF" filter="url(#fzn3ez1ubxu1y)" height="70" style="stroke: #000000; stroke-width: 1.5;" width="86" x="368" y="223"/><path d="M440,224 L440,230 L430,240 L368,240 " fill="none" style="stroke: #000000; stroke-width: 1.5;"/><text fill="#000000" font-family="sans-serif" font-size="14" font-weight="bold" lengthAdjust="spacingAndGlyphs" textLength="62" x="371" y="236.3184">gh-page</text><!--entity emacs--><rect fill="#FEFECE" filter="url(#fzn3ez1ubxu1y)" height="34" style="stroke: #A80036; stroke-width: 1.5;" width="62" x="22" y="47.5"/><rect fill="#FEFECE" height="5" style="stroke: #A80036; stroke-width: 1.5;" width="10" x="17" y="52.5"/><rect fill="#FEFECE" height="5" style="stroke: #A80036; stroke-width: 1.5;" width="10" x="17" y="71.5"/><text fill="#000000" font-family="sans-serif" font-size="14" lengthAdjust="spacingAndGlyphs" textLength="42" x="32" y="69.8184">Emacs</text><!--entity txt--><rect fill="#FEFECE" filter="url(#fzn3ez1ubxu1y)" height="37" style="stroke: #000000; stroke-width: 1.5;" width="64" x="145" y="46"/><polygon fill="#FEFECE" points="192,51,192,65,204,65,204,57,198,51,192,51" style="stroke: #000000; stroke-width: 1.5;"/><line style="stroke: #000000; stroke-width: 1.5;" x1="198" x2="198" y1="51" y2="57"/><line style="stroke: #000000; stroke-width: 1.5;" x1="204" x2="198" y1="57" y2="57"/><text fill="#000000" font-family="sans-serif" font-size="14" lengthAdjust="spacingAndGlyphs" textLength="34" x="155" y="71.3184">TEXT</text><!--entity git--><rect fill="#FEFECE" filter="url(#fzn3ez1ubxu1y)" height="34" style="stroke: #A80036; stroke-width: 1.5;" width="37" x="272.5" y="249.5"/><rect fill="#FEFECE" height="5" style="stroke: #A80036; stroke-width: 1.5;" width="10" x="267.5" y="254.5"/><rect fill="#FEFECE" height="5" style="stroke: #A80036; stroke-width: 1.5;" width="10" x="267.5" y="273.5"/><text fill="#000000" font-family="sans-serif" font-size="14" lengthAdjust="spacingAndGlyphs" textLength="17" x="282.5" y="271.8184">git</text><!--entity sphinx--><rect fill="#FEFECE" filter="url(#fzn3ez1ubxu1y)" height="34" style="stroke: #A80036; stroke-width: 1.5;" width="65" x="244.5" y="47.5"/><rect fill="#FEFECE" height="5" style="stroke: #A80036; stroke-width: 1.5;" width="10" x="239.5" y="52.5"/><rect fill="#FEFECE" height="5" style="stroke: #A80036; stroke-width: 1.5;" width="10" x="239.5" y="71.5"/><text fill="#000000" font-family="sans-serif" font-size="14" lengthAdjust="spacingAndGlyphs" textLength="45" x="254.5" y="69.8184">Sphinx</text><!--entity html1--><rect fill="#FEFECE" filter="url(#fzn3ez1ubxu1y)" height="37" style="stroke: #000000; stroke-width: 1.5;" width="69" x="38.5" y="248"/><polygon fill="#FEFECE" points="90.5,253,90.5,267,102.5,267,102.5,259,96.5,253,90.5,253" style="stroke: #000000; stroke-width: 1.5;"/><line style="stroke: #000000; stroke-width: 1.5;" x1="96.5" x2="96.5" y1="253" y2="259"/><line style="stroke: #000000; stroke-width: 1.5;" x1="102.5" x2="96.5" y1="259" y2="259"/><text fill="#000000" font-family="sans-serif" font-size="14" lengthAdjust="spacingAndGlyphs" textLength="39" x="48.5" y="273.3184">HTML</text><!--entity ghp_import--><rect fill="#FEFECE" filter="url(#fzn3ez1ubxu1y)" height="34" style="stroke: #A80036; stroke-width: 1.5;" width="94" x="143" y="249.5"/><rect fill="#FEFECE" height="5" style="stroke: #A80036; stroke-width: 1.5;" width="10" x="138" y="254.5"/><rect fill="#FEFECE" height="5" style="stroke: #A80036; stroke-width: 1.5;" width="10" x="138" y="273.5"/><text fill="#000000" font-family="sans-serif" font-size="14" lengthAdjust="spacingAndGlyphs" textLength="74" x="153" y="271.8184">ghp-import</text><!--entity html2--><rect fill="#FEFECE" filter="url(#fzn3ez1ubxu1y)" height="37" style="stroke: #000000; stroke-width: 1.5;" width="69" x="376.5" y="248"/><polygon fill="#FEFECE" points="428.5,253,428.5,267,440.5,267,440.5,259,434.5,253,428.5,253" style="stroke: #000000; stroke-width: 1.5;"/><line style="stroke: #000000; stroke-width: 1.5;" x1="434.5" x2="434.5" y1="253" y2="259"/><line style="stroke: #000000; stroke-width: 1.5;" x1="440.5" x2="434.5" y1="259" y2="259"/><text fill="#000000" font-family="sans-serif" font-size="14" lengthAdjust="spacingAndGlyphs" textLength="39" x="386.5" y="273.3184">HTML</text><!--link emacs to txt--><path d="M84.2904,64.5 C101.0656,64.5 121.8534,64.5 139.4907,64.5 " fill="none" id="emacs-txt" style="stroke: #A80036; stroke-width: 1.0;"/><polygon fill="#A80036" points="144.8552,64.5,135.8552,60.5,139.8552,64.5,135.8552,68.5,144.8552,64.5" style="stroke: #A80036; stroke-width: 1.0;"/><text fill="#000000" font-family="sans-serif" font-size="13" lengthAdjust="spacingAndGlyphs" textLength="24" x="102.5" y="58.9385">edit</text><!--link txt to sphinx--><path d="M209.0313,64.5 C219.0547,64.5 229.0781,64.5 239.1015,64.5 " fill="none" id="txt-sphinx" style="stroke: #A80036; stroke-width: 1.0;"/><polygon fill="#A80036" points="244.3431,64.5,235.3431,60.5,239.3431,64.5,235.3431,68.5,244.3431,64.5" style="stroke: #A80036; stroke-width: 1.0;"/><!--link sphinx to html1--><path d="M255.0894,81.6725 C224.6315,106.0189 168.458,152.6679 126,198 C112.5862,212.3218 99.0756,229.8425 89.0525,243.5791 " fill="none" id="sphinx-html1" style="stroke: #A80036; stroke-width: 1.0;"/><polygon fill="#A80036" points="86.0579,247.713,94.5772,242.7711,88.9912,243.6638,88.0985,238.0779,86.0579,247.713" style="stroke: #A80036; stroke-width: 1.0;"/><text fill="#000000" font-family="sans-serif" font-size="13" lengthAdjust="spacingAndGlyphs" textLength="32" x="182" y="156.4385">build</text><!--link html1 to ghp_import--><path d="M107.7344,266.5 C117.677,266.5 127.6196,266.5 137.5622,266.5 " fill="none" id="html1-ghp_import" style="stroke: #A80036; stroke-width: 1.0;"/><polygon fill="#A80036" points="142.7615,266.5,133.7615,262.5,137.7615,266.5,133.7615,270.5,142.7615,266.5" style="stroke: #A80036; stroke-width: 1.0;"/><!--link ghp_import to git--><path d="M237.3438,266.5 C247.2198,266.5 257.0959,266.5 266.9719,266.5 " fill="none" id="ghp_import-git" style="stroke: #A80036; stroke-width: 1.0;"/><polygon fill="#A80036" points="272.1365,266.5,263.1365,262.5,267.1365,266.5,263.1365,270.5,272.1365,266.5" style="stroke: #A80036; stroke-width: 1.0;"/><!--link git to html2--><path d="M309.75,266.5 C326.1574,266.5 350.5412,266.5 371.2683,266.5 " fill="none" id="git-html2" style="stroke: #A80036; stroke-width: 1.0;"/><polygon fill="#A80036" points="376.452,266.5,367.452,262.5,371.452,266.5,367.452,270.5,376.452,266.5" style="stroke: #A80036; stroke-width: 1.0;"/><text fill="#000000" font-family="sans-serif" font-size="13" lengthAdjust="spacingAndGlyphs" textLength="30" x="328" y="281.9385">push</text><!--
@startuml

node "開発マシン"  {
  [Emacs]       as emacs
  artifact TEXT as txt
  [git]
  [Sphinx]      as sphinx
  artifact HTML as html1
  [ghp-import]  as ghp_import
}


cloud "GitHub" {
  frame "gh-page" {
    artifact HTML as html2
  }
}
emacs -> txt    : edit
txt   -> sphinx
sphinx-down-> html1  : build
html1 -> ghp_import
ghp_import -> git
git   -> html2 : push
@enduml

PlantUML version 1.2019.03(Sun Mar 10 20:04:44 JST 2019)
(GPL source distribution)
Java Runtime: OpenJDK Runtime Environment
JVM: OpenJDK 64-Bit Server VM
Java Version: 11.0.1+13-Ubuntu-3ubuntu3.18.10.1
Operating System: Linux
OS Version: 4.18.0-16-generic
Default Encoding: UTF-8
Language: ja
Country: JP
--></g></svg>